<mxfile host="app.diagrams.net" modified="2023-10-15T10:58:27.495Z" agent="Mozilla/5.0 (Windows NT 10.0; Win64; x64) AppleWebKit/537.36 (KHTML, like Gecko) Chrome/117.0.0.0 Safari/537.36" etag="fwZh-NXWrjbMTlNe7st6" version="22.0.4" type="github">
  <diagram name="1 oldal" id="gjOM7e6wO8diRWeVtiza">
    <mxGraphModel dx="2100" dy="1132" grid="1" gridSize="10" guides="1" tooltips="1" connect="1" arrows="1" fold="1" page="1" pageScale="1" pageWidth="900" pageHeight="1600" math="0" shadow="0">
      <root>
        <mxCell id="0" />
        <mxCell id="1" parent="0" />
        <mxCell id="eI0seqku75HwyaSV5OBJ-1" value="Megérkezett a hintód, leszálltál az autóbusz állomásnál, Győr pöcegödrébe (vidéki).&lt;br&gt;Éhes vagy és nincs sok petákod (500Ft). Célod, hogy életben maradj és elzsalj a mekibe, ahol legyen elég jussod, hogy tudj magadnak vásárolni egy bejövős ajánlatot (1390Ft).&lt;br&gt;Próbálj meg sértetlen maradni valamint ne kötözködj sokat a hobókkal!" style="whiteSpace=wrap;html=1;" vertex="1" parent="1">
          <mxGeometry x="180" width="610" height="170" as="geometry" />
        </mxCell>
        <mxCell id="eI0seqku75HwyaSV5OBJ-11" value="" style="edgeStyle=orthogonalEdgeStyle;rounded=0;orthogonalLoop=1;jettySize=auto;html=1;" edge="1" parent="1" source="eI0seqku75HwyaSV5OBJ-3" target="eI0seqku75HwyaSV5OBJ-10">
          <mxGeometry relative="1" as="geometry" />
        </mxCell>
        <mxCell id="eI0seqku75HwyaSV5OBJ-13" value="" style="edgeStyle=orthogonalEdgeStyle;rounded=0;orthogonalLoop=1;jettySize=auto;html=1;" edge="1" parent="1" source="eI0seqku75HwyaSV5OBJ-3" target="eI0seqku75HwyaSV5OBJ-12">
          <mxGeometry relative="1" as="geometry" />
        </mxCell>
        <mxCell id="eI0seqku75HwyaSV5OBJ-3" value="Az orrodat megcsavarja az égett benzinből áradó füst, amely a buszok kipufogójából ered, a füled pedig brazilmagyarok ordibálásától cseng.&lt;br&gt;Gondold meg mely útvonalon próbálsz szerencsét.&lt;br&gt;" style="rounded=0;whiteSpace=wrap;html=1;" vertex="1" parent="1">
          <mxGeometry x="270" y="220" width="380" height="60" as="geometry" />
        </mxCell>
        <mxCell id="eI0seqku75HwyaSV5OBJ-15" value="" style="edgeStyle=orthogonalEdgeStyle;rounded=0;orthogonalLoop=1;jettySize=auto;html=1;" edge="1" parent="1" source="eI0seqku75HwyaSV5OBJ-10" target="eI0seqku75HwyaSV5OBJ-14">
          <mxGeometry relative="1" as="geometry" />
        </mxCell>
        <mxCell id="eI0seqku75HwyaSV5OBJ-10" value="aluljáró" style="whiteSpace=wrap;html=1;rounded=0;" vertex="1" parent="1">
          <mxGeometry x="210" y="410" width="120" height="60" as="geometry" />
        </mxCell>
        <mxCell id="eI0seqku75HwyaSV5OBJ-12" value="Baross Gábor híd" style="whiteSpace=wrap;html=1;rounded=0;" vertex="1" parent="1">
          <mxGeometry x="600" y="410" width="120" height="60" as="geometry" />
        </mxCell>
        <mxCell id="eI0seqku75HwyaSV5OBJ-14" value="Az aluljáró előtt meglátod egyik ismerősödet, Csabikát, aki az búcsúban lőtt JBL-én hallgatja a muzsikát.&lt;br&gt;Mit teszel?" style="whiteSpace=wrap;html=1;rounded=0;" vertex="1" parent="1">
          <mxGeometry x="20" y="550" width="340" height="70" as="geometry" />
        </mxCell>
      </root>
    </mxGraphModel>
  </diagram>
</mxfile>
